<svg xmlns="http://www.w3.org/2000/svg" width="300" height="111" viewBox="0 0 300 111" fill="none">
<path d="M300 0H0V111H300V0Z" fill="#FFC917"></path>
<path d="M81.8539 55.4903C81.8539 55.0155 81.8539 54.5588 81.8599 54.0901C81.9289 49.2074 81.9829 44.5892 75.2509 40.5268C71.4019 38.1982 65.8939 36.9692 59.3089 36.9692H52.3009H38.5129H36.9199V38.5557V72.4218V74.0053H38.5129H52.3009H53.8939H59.3089C65.8939 74.0053 71.3959 72.7794 75.2509 70.4567C81.9829 66.3884 81.9319 61.7791 81.8599 56.8965C81.8539 56.4368 81.8539 55.965 81.8539 55.4903ZM64.8979 55.4903C64.8979 61.073 64.4869 61.4216 63.9379 61.8873L63.9319 61.9083L63.9139 61.9264C63.2179 62.5574 61.8559 63.4077 58.3579 63.4077H53.8939V47.5699H58.3579C61.8679 47.5699 63.2149 48.4322 63.9139 49.0662L63.9319 49.0782H63.9379C64.4689 49.5379 64.8979 49.9045 64.8979 55.4903Z" fill="black"></path>
<path d="M261.491 36.9722H247.727H246.128V38.5587V51.9266L234.092 40.6409L233.033 39.6343V39.4841L232.529 39.0094L230.834 37.4078L230.378 36.9722H229.745H217.685H216.11V38.5587V72.4247V74.0082H217.685H231.437H233.033V72.4247V59.189L246.638 71.962L248.354 73.5695L248.789 74.0082H249.434H261.491H263.084V72.4247V38.5587V36.9722H261.491Z" fill="black"></path>
<path d="M213.737 54.0095C213.725 49.226 213.362 44.3854 207.293 40.7167C203.222 38.2678 198.68 36.9938 193.013 36.7354C192.965 36.7354 192.209 36.7234 191.537 36.7054C191.537 36.7054 190.964 36.6934 190.793 36.6934C190.634 36.6934 190.442 36.6934 190.241 36.7054C190.241 36.7054 188.642 36.7354 188.606 36.7354C182.921 36.9938 178.382 38.2648 174.296 40.7167C168.236 44.3854 167.873 49.226 167.867 54.0095C167.867 54.331 167.867 55.5059 167.867 55.5059C167.867 55.5059 167.867 56.6987 167.867 57.0172C167.873 61.7917 168.236 66.6293 174.296 70.295C178.379 72.7529 182.921 74.0269 188.582 74.2733C188.642 74.2733 189.38 74.2913 190.052 74.3153C190.052 74.3153 190.643 74.3274 190.79 74.3274C190.967 74.3274 191.504 74.3183 191.504 74.3183C192.206 74.3063 192.944 74.2733 192.998 74.2733C198.677 74.0269 203.216 72.7529 207.29 70.295C213.359 66.6263 213.725 61.7857 213.734 57.0052C213.734 56.6897 213.734 55.5028 213.734 55.5028C213.734 55.5028 213.737 54.331 213.737 54.0095ZM189.467 63.6216L188.927 63.5374C187.814 63.3421 186.83 62.9605 186.272 62.5188C185.657 62.0291 185.018 61.5273 184.859 57.6332C184.841 57.0142 184.823 56.3291 184.823 55.5149C184.823 49.6346 185.561 49.0577 186.269 48.4899C186.827 48.0572 187.811 47.6756 188.924 47.4773L189.47 47.3901C190.004 47.321 190.583 47.282 190.787 47.282C190.997 47.282 191.591 47.321 192.134 47.3901L192.668 47.4773C193.769 47.6756 194.765 48.0572 195.329 48.4959C195.938 48.9826 196.565 49.4844 196.724 53.3785C196.748 54.0035 196.766 54.6946 196.766 55.4908C196.766 61.371 196.028 61.966 195.329 62.5158C194.765 62.9545 193.769 63.3361 192.656 63.5344L192.128 63.6186C191.582 63.6787 191.003 63.7358 190.787 63.7358C190.586 63.7388 190.001 63.6787 189.467 63.6216Z" fill="black"></path>
<path d="M134.206 74.0082L111.748 36.9722L99.802 36.9932L77.335 74.0082H95.425L105.784 55.4902L116.137 74.0082H134.206Z" fill="black"></path>
<path d="M114.952 36.9722L137.431 74.0082L149.377 73.9932L171.847 36.9722H153.748L143.395 55.4902L133.042 36.9722H114.952Z" fill="black"></path>
</svg>