<svg id="uuid-4ed176f6-d3d0-4916-9f97-75dd358097ba" xmlns="http://www.w3.org/2000/svg" viewBox="0 0 224.6 227.1">
    <g id="uuid-fa17732a-e35d-48fc-be5d-bbcce6b83d44">
        <g id="uuid-351ace43-8646-4240-8872-d172394b5055">
            <g id="uuid-641357fe-5783-48b8-aff4-fd0f4727d320">
                <g id="uuid-4b44c4c3-39df-4146-bcca-5df0e5b1f573">
                    <rect id="uuid-6c9f34e5-b0c1-4473-b4b5-4c609d9f81b6" y="218.8" width="224.2" height="8.3" style="fill:#e30613;"/>
                    <path id="uuid-414a1098-05c3-4884-a2d6-cda6e3caa1f3" d="M114.3,171.4l-13-20.1-9.7,20.9H48.6l39-72.4,4.8,6.4L114,0l21.9,106.6,4.5-6.8,41.2,72.4h-45.3l-9.7-20.5-12.2,19.7Zm-.7-132.3l-17.4,87.2-7.8-11.8-26.4,49.7h24.5l13.7-29.2,14.1,21.6,13.4-21.6,13.7,29.2h26.4l-27.8-49.7-7.8,12.1-18.6-87.6Z" style="fill:#e30613; fill-rule:evenodd;"/>
                    <path id="uuid-4adc9e35-ec52-4a16-a359-98135cde5572" d="M92.1,178.6h14.1v20.9c0,2.7,1.1,5.3,8.2,5.3s8.5-1.9,8.5-5.3v-20.9h14.1v21.2c0,8-6.3,13.7-22.3,13.7s-22.3-5.7-22.3-13.7v-21.2h-.4Zm-3.3,0v8.7h-26.7v4.6h21.9v7.6h-21.9v4.6h27.8v8.3H49v-34.1h39.7v.4Zm92.1,0v8.3h-14.1v25.4h-14.8v-25.4h-12.2v-8.3h41.2Zm23.4,25.8h20.4v8.3h-43.1v-8.3l20.8-17.1h-19.7v-8.3h41.6v8.7l-20,16.7ZM13.4,187.7v17.4h6.7c5.9,0,11.1-3,11.1-8.3s-4.5-9.1-11.1-9.1h-6.7ZM0,178.6H24.9c11.9,0,20.4,6.4,20.4,17.4s-8.2,16.7-20.4,16.7H0v-34.1Z"/>
                    <path id="uuid-45d26a7f-97aa-4219-9d62-233fdf8fa9b2" d="M213.4,172.2c5.9,0,10.8-4.9,10.8-11s-4.8-10.6-10.8-10.6-10.8,4.9-10.8,10.6,4.8,11,10.8,11m0-20.1c5.2,0,9.3,4.2,9.3,9.1s-4.1,9.1-9.3,9.1-9.3-4.2-9.3-9.1,4.1-9.1,9.3-9.1m1.9,9.5c2.2,0,3.7-1.1,3.7-3.4s-.4-2.3-1.5-2.7-1.9-.8-3-.8h-5.2v12.1h1.9v-5.7h2.2l3.3,5.7h2.2l-3.7-5.3Zm-4.1-1.5v-3.8h3.3c1.5,0,3,.4,3,1.9,0,2.3-2.2,1.9-4.1,1.9h-2.2Z"/>
                </g>
            </g>
        </g>
    </g>
</svg>