<svg xmlns="http://www.w3.org/2000/svg" width="150" height="44" viewBox="0 0 445.39 127.31" role="img">
    <title>Epiroc Logotype</title>
    <path class="cls" d="M261.43,15.85a10.12,10.12,0,1,1-10,10.11A10.16,10.16,0,0,1,261.43,15.85Z"></path>
    <path class="cls" d="M400.21,71.54c0,9,6,14,13.19,14a11.63,11.63,0,0,0,11.24-7.1,1.52,1.52,0,0,1,1.85-.88l12.4,3.79a1.54,1.54,0,0,1,1,2c-3,9.35-12.16,18.15-26.5,18.15-16.83,0-30.35-12.39-30.35-29.9s13.18-30,29.78-30c14.79,0,23.74,8.62,26.74,18.15a1.54,1.54,0,0,1-1,2l-12.62,3.81a1.53,1.53,0,0,1-1.86-.91c-1.53-3.79-4.9-7.08-10.91-7.08C406,57.45,400.21,62.45,400.21,71.54Z"></path>
    <path class="cls" d="M348.12,41.53c-16.82,0-30,12.39-30,29.9s13.18,30,30,30,30-12.51,30-30S365.06,41.53,348.12,41.53Zm0,44c-6.47,0-12.72-4.66-12.72-14.09s6.25-14,12.72-14,12.74,4.43,12.74,14S354.72,85.52,348.12,85.52Z"></path>
    <path class="cls" d="M315.6,58.6a1.54,1.54,0,0,1-1.74,1.29,23,23,0,0,0-3.28-.2c-6.93,0-13.18,4.12-13.18,15.38V98.2a1.53,1.53,0,0,1-1.53,1.53H281.65a1.53,1.53,0,0,1-1.53-1.53V44.77a1.53,1.53,0,0,1,1.53-1.53H295.3a1.53,1.53,0,0,1,1.53,1.53v6.09c3-6.37,10.12-8.19,14.66-8.19a27.78,27.78,0,0,1,5,.56A1.52,1.52,0,0,1,317.65,45Z"></path>
    <rect class="cls" x="252.9" y="43.24" width="17.28" height="56.49" rx="1.53"></rect>
    <path class="cls" d="M220,41.87c-8.07,0-14.21,3.53-16.59,7.17V44.77a1.53,1.53,0,0,0-1.53-1.53H188.27a1.52,1.52,0,0,0-1.53,1.53v75a1.53,1.53,0,0,0,1.53,1.53h14.21A1.53,1.53,0,0,0,204,119.8V95.3c2.62,3.18,8.07,5.68,15.35,5.68,15.8,0,26.94-12.39,26.94-29.67C246.3,54.38,236.41,41.87,220,41.87Zm-3.52,43.65c-6.71,0-12.73-4.77-12.73-14.09s6-14,12.73-14,12.84,4.54,12.84,14S223.34,85.52,216.52,85.52Z"></path>
    <path class="cls" d="M128.09,98.2V20.67a1.54,1.54,0,0,1,1.53-1.53h48a1.54,1.54,0,0,1,1.53,1.53V34.55a1.54,1.54,0,0,1-1.53,1.53h-30a1.53,1.53,0,0,0-1.53,1.53V49.89a1.53,1.53,0,0,0,1.53,1.53h26.95A1.54,1.54,0,0,1,176.06,53V65.69a1.53,1.53,0,0,1-1.53,1.53H147.58a1.54,1.54,0,0,0-1.53,1.53v12.4a1.53,1.53,0,0,0,1.53,1.53h30.13a1.53,1.53,0,0,1,1.53,1.53v14a1.52,1.52,0,0,1-1.53,1.53H129.62A1.53,1.53,0,0,1,128.09,98.2Z"></path>
    <path class="cls" d="M101.2,49.05V35a8.13,8.13,0,0,0-4.07-7L57.61,5.12a8.16,8.16,0,0,0-8.14,0L10,27.94A8.13,8.13,0,0,0,5.88,35V80.62a8.13,8.13,0,0,0,4.07,7l39.52,22.82a8.16,8.16,0,0,0,8.14,0L97.13,87.67a8.13,8.13,0,0,0,4.07-7V59.9L53.54,88.39,27.05,73.1V42.51L50.83,28.78a5.41,5.41,0,0,1,5.42,0L80,42.63,55.51,56.75a5.6,5.6,0,0,1-5.6,0L32.32,46.61V70.36L53.13,81.5l44-25.4A8.13,8.13,0,0,0,101.2,49.05Z"></path>
</svg>