<svg xmlns="http://www.w3.org/2000/svg" id="Livello_1" data-name="Livello 1" viewBox="0 0 572.26 124.2">
  <defs>
    <clipPath id="clip-path" transform="translate(-19.84 -18.3)">
      <path style="fill:none" d="M19.84 18.3h572.2v123.68H19.84z"/>
    </clipPath>
    <style>
      .cls-2{fill:#79b857}.cls-3{fill:#2160a6}.cls-4{fill:#fff}
    </style>
  </defs>
  <title>FAR_LOGO_20190416</title>
  <path class="cls-2" d="m88.95 101.07 33.24-38.97 25.55-11.63 410.43 5.23-1.15 6.4-21 3.99-9.57 31.2-6.18 6.49-12.36 3.1z"/>
  <path class="cls-3" d="M100.03 17.31h465.03l-8.03 44.79H78.88z"/>
  <path class="cls-3" d="m122.16 73.7-6.68-11.6 6.68-11.63 6.71 11.63Zm-7.39 12.8-6.71-11.63 6.71-11.62 6.71 11.62Zm-7.38 12.8-6.69-11.6 6.72-11.62 6.74 11.62ZM100 112.09l-6.71-11.63L100 88.84l6.71 11.62Zm-58.73.61-6.72-11.62-.67-1.17-6.72-11.64-.68-1.17-6.7-11.62-.68-1.17-6.71-11.61h57.77l6.71 11.62.68 1.17 6.71 11.62.68 1.17 6.71 11.63.67 1.17 6.7 11.62ZM19.1 49.89h13.42l-6.71 11.62H12.39Zm7.39-12.8h13.42L33.16 48.7H19.78Zm7.39-12.79H47.3l-6.71 11.62H27.16Zm7.39-12.8h13.42l-6.71 11.62H34.55Zm28.19 0-6.71 11.62H49.33l6.71-11.62Zm14.78 0-6.71 11.62H64.16l6.66-11.62Zm14.78 0L92.3 23.12H78.88l6.71-11.62Zm7.72 12.2-6.71 11.62-6.71-11.62 6.71-11.62Zm7.42 12.8-6.71 11.63-6.75-11.63 6.72-11.62ZM100.7 62.1l6.72-11.63 6.74 11.63-6.74 11.6Zm-7.38 12.79 6.71-11.62 6.71 11.62-6.71 11.63Zm-.68 1.18 6.71 11.63-6.71 11.63-6.71-11.63Zm-7.39-12.8 6.72 11.62-6.72 11.63-6.71-11.63Zm-7.38-12.8 6.71 11.63-6.71 11.6-6.71-11.6Zm-14.44-.58h13.42l-6.69 11.62H56.72Zm-14.78 0h13.42l-6.7 11.62H41.94Zm-1.35 0-6.71 11.62H27.16l6.71-11.62Zm7.39-12.8L47.98 48.7H34.55l6.72-11.62Zm.68-1.17H41.94l6.71-11.62h13.42Zm14.77 0H56.72l6.71-11.62h13.42Zm14.78 0H71.49l6.67-11.62h13.43Zm7.72 12.21L85.93 36.5l6.71-11.62 6.71 11.62Zm.68 1.17 6.71-11.6 6.71 11.62-6.71 11.63Zm-.68 1.17 6.71 11.63-6.71 11.6-6.71-11.6ZM85.25 37.7l6.72 11.62-6.72 11.63-6.71-11.65Zm-22.5 11H49.33l6.71-11.62h13.42Zm8.07-11.62h13.42L77.53 48.7H64.16Zm50.69 12.22-6.71 11.63-6.71-11.63 6.71-11.6Zm-21.23-39H40.59L10.7 62.1l29.89 51.76h59.78l7.38-12.79 22.5-39Z"/>
  <path class="cls-4" d="m92.3 101.07-.67-1.17H78.16l-6.71-11.63h13.43l-.68-1.17H70.82l-6.66-11.62h13.37l-.68-1.17H63.43L56.72 62.7h-1.35l6.7 11.63H48.65L41.94 62.7h-1.35l6.71 11.63H33.88L27.16 62.7h-1.35l6.71 11.63H19.1l.68 1.17h13.38l6.71 11.62H26.49l.68 1.17h13.42l6.71 11.63H33.88l.68 1.17h13.41l6.72 11.61h1.35l-6.71-11.62h13.42l6.71 11.62h1.36l-6.66-11.63h13.37l6.71 11.63h1.35l-6.71-11.62ZM62.75 75.48l6.71 11.62H56.04l-6.71-11.62Zm-28.19 0h13.41l6.72 11.62H41.27ZM48.65 99.9l-6.71-11.63h13.43l6.7 11.63Zm14.78 0-6.71-11.63h13.44l6.71 11.63Zm13.43-50.01-6.72 11.62H56.72l6.71-11.62zm7.38-12.8-6.71 11.63H64.11l6.71-11.63zm7.39-12.79-6.71 11.62H71.5l6.71-11.62zm7.39-12.8-6.71 11.62H78.88l6.71-11.62z"/>
  <path class="cls-2" d="m84.24 11.5-6.71 11.62H64.11l6.71-11.62z"/>
  <path class="cls-4" d="m76.86 24.3-6.72 11.62H56.72l6.71-11.62z"/>
  <path class="cls-2" d="m69.47 37.09-6.71 11.63H49.33l6.72-11.63z"/>
  <path class="cls-4" d="m62.08 49.89-6.71 11.62H41.95l6.71-11.62zm-14.78 0-6.71 11.62H27.17l6.71-11.62z"/>
  <path class="cls-2" d="m54.69 37.09-6.71 11.63H34.56l6.71-11.63z"/>
  <path class="cls-4" d="m62.08 24.3-6.71 11.62H41.95l6.71-11.62z"/>
  <path class="cls-2" d="m69.47 11.5-6.71 11.62H49.33l6.72-11.62zm-14.78 0-6.71 11.62H34.56l6.71-11.62zM47.3 24.3l-6.71 11.62H27.17l6.71-11.62zm-7.39 12.79L33.2 48.72H19.78l6.72-11.63zm-7.38 12.8-6.71 11.62H12.4l6.7-11.62z"/>
  <path class="cls-3" d="M84.24 112.7H70.82l-6.71-11.63h13.42zm-7.38-12.8H63.43l-6.71-11.63h13.42zM47.3 74.31H33.88l-6.71-11.62h13.42zM62.08 99.9H48.66l-6.71-11.63h13.42zm7.39 12.8H56.05l-6.72-11.63h13.43zm-14.78 0H41.27l-6.71-11.63h13.42zM47.3 99.9H33.88l-6.71-11.63h13.42zM32.53 74.31H19.1l-6.7-11.62h13.42zm7.38 12.79H26.5l-6.72-11.62H33.2zm14.78 0H41.27l-6.71-11.62h13.42zm14.78 0H56.05l-6.72-11.62h13.43zm-7.39-12.79H48.66l-6.71-11.62h13.42zm14.78 0H63.43l-6.71-11.62h13.42zm7.38 12.79H70.82l-6.71-11.62h13.42zm7.39 12.8H78.21L71.5 88.27h13.42zm7.39 12.8H85.59l-6.71-11.63h13.43z"/>
  <path d="m106.74 100.48-6.71 11.63-6.71-11.63 6.71-11.62zm-7.38-12.79-6.72 11.62-6.71-11.62 6.71-11.63zm-7.39-12.8-6.71 11.63-6.71-11.63 6.71-11.62zM84.58 62.1l-6.71 11.62-6.71-11.62 6.71-11.63zm7.39-12.8-6.71 11.63-6.71-11.63 6.71-11.62zm7.39 12.8-6.72 11.62-6.71-11.62 6.71-11.63zm7.38 12.79-6.71 11.63-6.71-11.63 6.71-11.62zm7.39 12.8-6.71 11.62-6.71-11.62 6.71-11.63zm7.39-12.8-6.71 11.63-6.72-11.63 6.72-11.62zm-7.39-12.79-6.71 11.62-6.71-11.62 6.71-11.63zm-7.39-12.8-6.71 11.63-6.71-11.63 6.71-11.62zm-7.38-12.79-6.72 11.62-6.71-11.62 6.71-11.63zm7.38-12.8-6.71 11.63-6.71-11.63 6.71-11.62zm7.39 12.8-6.71 11.62-6.71-11.62 6.71-11.63zm7.39 12.79-6.71 11.63-6.72-11.63 6.72-11.62zm7.39 12.8-6.72 11.62-6.71-11.62 6.71-11.63z" style="fill:#b1c2e1"/>
  <g style="clip-path:url(#clip-path)">
    <path d="M592.1 31.1H134.78l-7.39-12.8h-71.7L19.84 80.4l6 10.35 29.85 51.75h71.7l7.39-12.8H530a25 25 0 0 0 24.35-19.45l4.42-19.5h19.85Zm-12.93 10.32-8.84 39h-19.85L544.23 108A14.64 14.64 0 0 1 530 119.37H127.6l-7.39 12.8H60.43L36.52 90.75l-6-10.35 29.91-51.77h59.78l7.39 12.79z" transform="translate(-19.84 -18.3)" style="fill:#fae658"/>
  </g>
  <path class="cls-4" d="m484.56 34.05-1.13.11-1.14.29-1.07.51-.96.63-.85.79-.68.97-.56 1.02-.34 1.08-4.03 18.1-10.55-19.76-.68-1.02-.85-.9-1.02-.74-1.14-.56-1.19-.34-1.25-.11-14.34.04-12.54 56.05 3.86-.01 12.58-.04 1.19-.12 1.13-.28 1.02-.46 1.02-.68.8-.8.73-.91.51-1.08.33-1.07L457 68.82l9.34 17.6.69 1.02.9.9.97.74 1.14.56 1.24.34 1.19.1 15.99-.04 11.08-49.52.4-1.13.56-1.03.68-.96.9-.8.97-.68 1.13-.46.33-1.47zm-64.17.04-1.13.12-1.14.29-1.07.51-.96.62-.85.8-.68.97-.56 1.02-.34 1.08-11.36 50.65 16.44-.05 1.19-.11 1.13-.29 1.07-.46.97-.68.84-.79.68-.91.51-1.08.39-1.08 11.31-50.65zm-44.67.01-1.81.12-1.82.4-1.7.57-1.58.85-1.53 1.03-1.3 1.25-1.18 1.36-.97 1.54-.73 1.7-.5 1.7-.68 2.95-.22 1.65-.05 1.7.29 1.64.46 1.64.74 1.53.91 1.42 10.19 13.23.39.74.23.79-.05.85-.28.86-.45.68-.68.56-.74.35-.85.11-16.1.05-3.3 14.8 28.69-.08 4.47-.01 1.81-.12 1.82-.4 1.7-.57 1.58-.86 1.53-1.02 1.3-1.25 1.19-1.37.96-1.53.73-1.7.5-1.71 1.01-4.42.22-1.7.06-1.65-.29-1.7-.46-1.58-.74-1.53-.91-1.41-10.47-13.58-.4-.79-.23-.8.05-.85.23-.84.51-.69.62-.57.79-.34.85-.11 10.66-.04 2.91-12.93zm-56.24.03-12.53 56.04 33.95-.09 1.14-.12 1.13-.28 1.07-.46.97-.68.85-.8.73-.91.51-1.08.33-1.08 2.13-9.41-17.52.05 1.96-8.68 6.64-.02 1.19-.12 1.07-.28 1.08-.46.96-.68.85-.8.73-.91.51-1.02.33-1.14 1.3-5.55-12.19.03 1.9-8.68 11.96-.03 1.19-.12 1.13-.29 1.02-.45 1.02-.68.79-.8.74-.91.5-1.02.34-1.14 1.74-7.54zm-62.75 0-12.54 56h16.44l1.19-.11 1.13-.29 1.08-.46 1-.68.85-.8.68-.9.5-1.08.4-1.08 2.85-12.82 7.75 14.49.69 1 .85.9 1 .74 1.08.56 1.25.34 1.24.11h16.84l-12.5-23.48h1.59l1.64-.12 1.59-.34 1.47-.63 1.41-.8 1.25-1 1.07-1.2.91-1.3.72-1.48.45-1.53 2.46-11 .22-1.48V44.2l-.13-1.5-.4-1.41-.6-1.34-.74-1.3-.91-1.13-1.14-1-1.21-.92-1.3-.68-1.42-.51-1.42-.28-1.53-.1ZM275.81 47h5.33l-1.34 6-.28.91-.57.73-.73.57-.85.4-.91.12h-2.55Zm-57.65-12.93-1.25.12-1.19.34-1.13.58-1 .74-.85.9-.67 1-27.57 52.4h16.15l1.19-.12 1.25-.34 1.13-.57 1-.74.91-.91.68-1 4.62-8.8h11.62v12.47h15.19l-.16-56Zm4.79 21.63v10.94h-5.84Zm-62.93-21.57-11.08 49.52-.34 1.14-.56 1.02-.74.96-.84.8-1.02.68-1.08.46-.33 1.48 3.46-.02 16.43-.04 1.2-.12 1.13-.29 1.01-.45 1.02-.69.8-.79.73-.91.51-1.08.33-1.08 4.09-18.09 11.96-.04 1.14-.11 1.13-.29 1.07-.46.97-.68.85-.79.67-.92.57-1.01.33-1.14 1.23-5.56-17.46.05 1.9-8.68 14.92-.04 1.13-.12 1.13-.28 1.08-.46.96-.68.85-.8.73-.91.51-1.02.34-1.13 1.68-7.55z"/>
  <path class="cls-3" d="m222.95 55.66.03 10.94-5.84.02z"/>
</svg>
