<svg xmlns="http://www.w3.org/2000/svg" width="253.041" height="27.658" viewBox="0 0 253.041 27.658"><defs><style>.a{fill:#0d5ca7;}</style></defs><g transform="translate(-56.685 -435.814)"><g transform="translate(56.685 435.814)"><path class="a" d="M93.567,448.385l-6.707-5.028-1.678,1.257-3.35-2.515,1.677-1.257-6.7-5.028-1.678,1.258-1.678-1.258-6.7,5.028,1.676,1.257-3.353,2.515-1.674-1.257-6.707,5.028,1.678,1.259L56.685,450.9l6.707,5.027,1.674-1.255,3.353,2.513-1.676,1.255,6.7,5.031,1.678-1.259,1.678,1.259,6.7-5.031-1.677-1.255,3.35-2.513,1.678,1.255,6.706-5.027-1.676-1.257Zm-18.442,3.773-3.352-2.513,3.352-2.515,3.353,2.515Z" transform="translate(-56.685 -435.814)"/></g><g transform="translate(98.948 436.709)"><g transform="translate(0 0.004)"><path d="M94.952,443.487c1.15.113,1.084.785,1.084.785-.034,1.218-2.283,1.118-2.283,1.118a3.224,3.224,0,0,1-3-2.117h-1.4v3.7h1.02l.36-.331a7.121,7.121,0,0,0,5.565.446,3.411,3.411,0,0,0,1.544-4.683c-.69-1.606-5.04-2.069-5.04-2.069-1.315-.146-1.3-.836-1.3-.836-.066-.985,1-.985,1-.985,3,.031,3.414,1.788,3.414,1.788h1.265v-3.448H96.019l-.231.376s-3.215-1.393-5.3.017a3.417,3.417,0,0,0-1.28,2.824s-.133,2.481,3.038,2.975a21.1,21.1,0,0,0,2.708.444" transform="translate(-89.204 -436.474)"/><path d="M101.455,447.549c1.257-.043,4.022-.519,4.022-3.922v-4.58c0-.789.528-.772.528-.772h.491V436.8h-4.121v1.417h.2a.866.866,0,0,1,.8.915V444.2a1.6,1.6,0,0,1-1.618,1.3l-.517,0c-1.588-.1-1.708-1.306-1.708-1.306v-5.074a.866.866,0,0,1,.806-.915h.706V436.8H95.725v1.479h.591s.524-.017.524.772v4.58c0,3.543,3,3.913,4.17,3.926l.444,0" transform="translate(-87.251 -436.419)"/><path d="M110.815,442.38,108.58,436.8h-4.235v1.479h.8s.528-.017.528.772v5.716s0,.654-.838.654h-.508v1.446l4.2.016v-1.462h-.509c-.838,0-.838-.654-.838-.654v-4.572l2.546,6.391H110.9l2.641-6.391v4.572s0,.654-.836.654h-.424v1.462l5.055-.016v-1.446h-.509c-.838,0-.838-.654-.838-.654v-5.716c0-.789.528-.772.528-.772h.985V436.8h-4.419l-2.233,5.584" transform="translate(-84.673 -436.419)"/><path d="M141.844,442.38,139.61,436.8h-4.233v1.479h.8s.526-.017.526.772v5.716s0,.654-.837.654h-.509v1.446l4.2.016v-1.462h-.507c-.838,0-.838-.654-.838-.654v-4.572l2.546,6.391h1.166l2.642-6.391v4.572s0,.654-.838.654h-.424v1.462l5.057-.016v-1.446h-.509c-.838,0-.838-.654-.838-.654v-5.716c0-.789.528-.772.528-.772h.982V436.8h-4.416l-2.233,5.584" transform="translate(-75.376 -436.419)"/><path d="M120,436.8v1.479h-.637s-.524-.017-.524.772v5.716s0,.654.836.654h.342v1.446H114.83v-1.446h.343c.837,0,.837-.654.837-.654v-5.716c0-.789-.525-.772-.525-.772h-.635V436.8H120" transform="translate(-81.527 -436.419)"/><path d="M129.407,436.8v4.155h-1.3c0-2.529-1.718-2.348-1.718-2.348a.551.551,0,0,0-.526.622v5.538s0,.654.836.654h.942v1.446h-6.371v-1.446h.942c.84,0,.84-.654.84-.654v-5.538a.551.551,0,0,0-.528-.622s-1.97-.181-1.97,2.348h-1.292V436.8h10.141" transform="translate(-80.198 -436.419)"/><path d="M132.74,436.506h-.009a5.315,5.315,0,0,0-5.408,5.483v.265a5.315,5.315,0,0,0,5.408,5.484h.009a5.326,5.326,0,0,0,5.421-5.484v-.265A5.326,5.326,0,0,0,132.74,436.506Zm2.454,6.722a2.447,2.447,0,1,1-4.885,0v-2.281a2.447,2.447,0,1,1,4.885,0v2.281" transform="translate(-77.784 -436.506)"/><path d="M150.407,436.506H150.4a5.314,5.314,0,0,0-5.406,5.483v.265a5.315,5.315,0,0,0,5.406,5.484h.009a5.325,5.325,0,0,0,5.421-5.484v-.265A5.324,5.324,0,0,0,150.407,436.506Zm2.455,6.722a2.448,2.448,0,1,1-4.888,0v-2.281a2.448,2.448,0,1,1,4.888,0v2.281" transform="translate(-72.49 -436.506)"/></g><g transform="translate(89.844)"><path d="M189.069,443.484c1.151.116,1.084.792,1.084.792-.033,1.214-2.282,1.115-2.282,1.115a3.23,3.23,0,0,1-3.007-2.117h-1.4v3.695h1.019l.36-.329a7.139,7.139,0,0,0,5.57.443,3.409,3.409,0,0,0,1.543-4.683c-.69-1.608-5.042-2.068-5.042-2.068-1.315-.152-1.3-.837-1.3-.837-.064-.989,1-.989,1-.989,3.007.035,3.422,1.791,3.422,1.791H191.3V436.85h-1.166l-.231.377s-3.217-1.393-5.305.017a3.419,3.419,0,0,0-1.277,2.824s-.134,2.481,3.036,2.975a20.115,20.115,0,0,0,2.711.442" transform="translate(-150.85 -436.47)"/><path d="M212.052,447.548c1.259-.042,4.024-.517,4.024-3.917v-4.586c0-.786.526-.772.526-.772h.493V436.8h-4.122v1.411h.2a.872.872,0,0,1,.8.921V444.2a1.6,1.6,0,0,1-1.619,1.3l-.516.009c-1.588-.107-1.709-1.307-1.709-1.307v-5.075a.875.875,0,0,1,.806-.921h.707V436.8h-5.322v1.478h.591s.525-.014.525.772v4.586c0,3.541,3,3.913,4.172,3.922l.443-.005" transform="translate(-143.959 -436.416)"/><path d="M235.747,436.8v1.478h-.816s-.528-.014-.528.772v5.717s0,.658.84.658h.522v1.446H230.5v-1.446h.52c.837,0,.837-.658.837-.658v-5.717c0-.786-.526-.772-.526-.772h-.816V436.8h5.23" transform="translate(-136.714 -436.416)"/><path d="M250.993,442.888v-3.843c0-.786-.524-.772-.524-.772h-.815V436.8h4.432v1.478h-.816s-.529-.014-.529.772v7.807h-2.124l-5.126-6.967v4.877s0,.658.842.658h.519v1.446h-4.462v-1.446h.52c.837,0,.837-.658.837-.658v-5.717c0-.786-.526-.772-.526-.772h-.816V436.8h4.43l4.157,6.093" transform="translate(-133.152 -436.416)"/><path d="M182.932,442.888v-3.843c0-.786-.525-.772-.525-.772h-.816V436.8h4.43v1.478H185.2s-.526-.014-.526.772v7.807h-2.126l-5.12-6.967v4.877s0,.658.836.658h.521v1.446h-4.463v-1.446h.521c.837,0,.837-.658.837-.658v-5.717c0-.786-.525-.772-.525-.772h-.814V436.8h4.426l4.161,6.093" transform="translate(-153.545 -436.416)"/><path d="M232.379,436.8v4.156h-1.294c0-2.529-1.723-2.348-1.723-2.348a.549.549,0,0,0-.524.622v5.536s0,.658.838.658h.944v1.446h-6.375v-1.446h.942c.837,0,.837-.658.837-.658v-5.536a.551.551,0,0,0-.528-.622s-1.968-.181-1.968,2.348h-1.294V436.8h10.145" transform="translate(-139.191 -436.416)"/><path d="M200.045,436.8v4.156h-1.293c0-2.529-1.722-2.348-1.722-2.348a.549.549,0,0,0-.524.622v5.536s0,.658.837.658h.944v1.446h-6.376v-1.446h.944c.84,0,.84-.658.84-.658v-5.536a.551.551,0,0,0-.526-.622s-1.973-.181-1.973,2.348H189.9V436.8h10.143" transform="translate(-148.878 -436.416)"/><path d="M208.083,444.853a5.058,5.058,0,0,0-1.6-3.011,2.706,2.706,0,0,0,1.873-2.455,2.561,2.561,0,0,0-2.532-2.591H198.2V438.4l1.029.014a.55.55,0,0,1,.526.624v5.72s0,.658-.838.658h-.733v1.446h5.673v-1.446h-.734c-.841,0-.841-.658-.841-.658v-2.179h1.038s1.535-.343,2.4,4.284h3.36v-1.446C208.2,445.369,208.083,444.853,208.083,444.853Zm-3.747-4.021h-2.052v-2.368h2.359s.768.126.768,1.293c0,0-.092,1.075-1.075,1.075" transform="translate(-146.396 -436.416)"/><path d="M205.357,438.079" transform="translate(-144.248 -436.031)"/><path d="M239.935,436.5h-.009a5.318,5.318,0,0,0-5.406,5.487v.264a5.316,5.316,0,0,0,5.406,5.486h.009a5.326,5.326,0,0,0,5.423-5.486v-.264A5.328,5.328,0,0,0,239.935,436.5Zm2.458,6.729a2.448,2.448,0,1,1-4.888,0V440.95a2.448,2.448,0,1,1,4.888,0v2.282" transform="translate(-135.51 -436.503)"/><path d="M171.863,436.5h-.005a5.32,5.32,0,0,0-5.412,5.487v.264a5.318,5.318,0,0,0,5.412,5.486h.005a5.325,5.325,0,0,0,5.425-5.486v-.264A5.327,5.327,0,0,0,171.863,436.5Zm2.456,6.729a2.446,2.446,0,1,1-4.884,0V440.95a2.446,2.446,0,1,1,4.884,0v2.282" transform="translate(-155.906 -436.503)"/><path d="M222.557,437.42l.25-.533h1.329v4.135h-1.395a3.018,3.018,0,0,0-3.093-2.764s-2.539-.061-2.539,3.584c0,0-.243,3.872,2.521,3.872,0,0,2.335.285,3.111-2.582h1.5a4.354,4.354,0,0,1-4.716,4.319s-5.036.042-5.445-5.119c0,0-.122-5.5,5.14-5.772a6.9,6.9,0,0,1,3.336.86" transform="translate(-141.634 -436.486)"/><path d="M166.815,437.42l.247-.533h1.329v4.135H167a3.021,3.021,0,0,0-3.093-2.764s-2.541-.061-2.541,3.584c0,0-.242,3.872,2.523,3.872,0,0,2.331.285,3.111-2.582h1.5a4.35,4.35,0,0,1-4.714,4.319s-5.037.042-5.448-5.119c0,0-.121-5.5,5.14-5.772a6.9,6.9,0,0,1,3.339.86" transform="translate(-158.336 -436.486)"/></g><g transform="translate(102.708 14.998)"><path d="M208.651,448.332v4.156h-1.293c0-2.529-1.722-2.348-1.722-2.348a.549.549,0,0,0-.524.623V456.3s0,.654.837.654h.938V458.4H200.52v-1.446h.942c.838,0,.838-.654.838-.654v-5.538a.551.551,0,0,0-.528-.623s-1.966-.181-1.966,2.348h-1.3v-4.156h10.142" transform="translate(-159.163 -447.956)"/><path d="M181.761,448.043h-.005a5.315,5.315,0,0,0-5.41,5.483v.264a5.319,5.319,0,0,0,5.41,5.486h.005a5.331,5.331,0,0,0,5.427-5.486v-.264A5.327,5.327,0,0,0,181.761,448.043Zm2.455,6.726a2.447,2.447,0,1,1-4.885,0v-2.286a2.447,2.447,0,1,1,4.885,0v2.286" transform="translate(-165.803 -448.043)"/><path d="M196.3,450.568v5.406a.805.805,0,0,0,.716.9h1.545c-.623,0,1.793.289,1.806-2.617h1.467l-.377,4.116h-9.325v-1.514h.964s.526.014.526-.772V450.6c0-.788-.526-.771-.526-.771h-.964v-1.479h5.825v1.337h-.982s-.676-.044-.676.88" transform="translate(-161.072 -447.951)"/><path d="M213.553,448.351h-6.824v1.479h.862s.526-.017.526.771v5.484c0,.786-.526.772-.526.772h-.862v1.514h6.438a4.74,4.74,0,0,0,4.463-5.022S217.673,448.351,213.553,448.351Zm1.151,5.066c0,3.415-2.069,3.456-2.069,3.456h-1.127a.8.8,0,0,1-.713-.9v-5.406c0-.924.673-.88.673-.88h.984c2.516.142,2.252,3.729,2.252,3.729" transform="translate(-156.7 -447.951)"/><path d="M176.714,448.958l.243-.531h1.331v4.134H176.9a3.022,3.022,0,0,0-3.09-2.766s-2.541-.061-2.541,3.583c0,0-.246,3.87,2.52,3.87,0,0,2.333.287,3.111-2.581h1.5a4.351,4.351,0,0,1-4.711,4.323s-5.036.04-5.451-5.119c0,0-.12-5.509,5.14-5.774a6.881,6.881,0,0,1,3.34.862" transform="translate(-168.234 -448.027)"/><path d="M187.4,455.445a1.4,1.4,0,1,1-1.4-1.4,1.4,1.4,0,0,1,1.4,1.4" transform="translate(-163.331 -446.245)"/><path d="M217.828,455.445a1.4,1.4,0,1,1-1.4-1.4,1.4,1.4,0,0,1,1.4,1.4" transform="translate(-154.216 -446.245)"/><path d="M190,455.507h0v-.062a1.4,1.4,0,1,0-1.792,1.348c-.113.205-.194.342-.194.342a.452.452,0,0,0,0,.584.439.439,0,0,0,.645.051c1.4-1.441,1.342-2.261,1.342-2.261" transform="translate(-162.553 -446.245)"/></g><g transform="translate(0.131 15.066)"><path d="M95.794,453.916l-2.231-5.584H89.323v1.478h.8s.526-.014.526.772V456.3s0,.654-.837.654h-.511V458.4l4.2.016v-1.462H93c-.834,0-.834-.654-.834-.654v-4.572l2.545,6.393h1.167l2.642-6.393V456.3s0,.654-.834.654h-.429v1.462l5.062-.016v-1.446h-.511c-.837,0-.837-.654-.837-.654v-5.718c0-.786.526-.772.526-.772h.98v-1.478H98.058l-2.23,5.584" transform="translate(-89.305 -448.025)"/><path d="M138.969,454.425v-3.843c0-.786-.528-.772-.528-.772h-.814v-1.478h4.428v1.478h-.815s-.526-.014-.526.772v7.8h-2.127l-5.122-6.966v4.88s0,.654.837.654h.52V458.4h-4.463v-1.446h.52c.841,0,.841-.654.841-.654v-5.718c0-.786-.525-.772-.525-.772h-.815v-1.478h4.426l4.163,6.093" transform="translate(-77.005 -448.025)"/><path d="M131.223,448.332v1.478h-.817s-.525-.014-.525.772V456.3s0,.654.84.654h.519V458.4H125.98v-1.446h.52c.84,0,.84-.654.84-.654v-5.718c0-.786-.528-.772-.528-.772h-.817v-1.478h5.228" transform="translate(-78.317 -448.025)"/><path d="M160.495,450.467c-.292-.678.321-.658.321-.658h.465v-1.478h-5.227v1.478h.585s.4-.066.847.516l2.7,3.77v2.2s0,.654-.84.654h-.747V458.4h5.7v-1.446h-.742c-.84,0-.84-.654-.84-.654v-2.2l2.489-3.77c.443-.582.845-.516.845-.516h.376v-1.478h-4.167v1.478h.465s.613-.021.325.658l-1.218,1.717-1.335-1.717" transform="translate(-69.306 -448.025)"/><path d="M157.664,456.388a5.1,5.1,0,0,0-1.6-3.01,2.713,2.713,0,0,0,1.874-2.458,2.563,2.563,0,0,0-2.537-2.589H147.78v1.608l1.025.016a.551.551,0,0,1,.528.624V456.3s0,.654-.834.654h-.733V458.4h5.669v-1.446H152.7c-.837,0-.837-.654-.837-.654v-2.185H152.9s1.539-.337,2.4,4.285h3.358v-1.446C157.783,456.906,157.664,456.388,157.664,456.388Zm-3.748-4.02h-2.051V450h2.357s.768.125.768,1.289c0,0-.094,1.079-1.075,1.079" transform="translate(-71.789 -448.025)"/><path d="M127.936,456.954c-.841,0-.841-.654-.841-.654v-5.718c0-.786.529-.772.529-.772h.634v-1.478H123.1v1.478h.637s.526-.014.526.772v1.939h-3.839v-1.939c0-.786.526-.772.526-.772h.639v-1.478h-5.158v1.478h.637s.525-.014.525.772V456.3s0,.654-.836.654h-.342V458.4H121.6v-1.443h-.34c-.837,0-.837-.654-.837-.654v-2.1h3.839v2.1s0,.654-.836.654h-.342V458.4h5.187v-1.443h-.339" transform="translate(-81.181 -448.025)"/><path d="M147.135,455.563H145.6a1.483,1.483,0,0,0-.945-1.391h-.674v2.7h2.192c2.5,0,2.374-2.617,2.374-2.617h1.474l-.448,4.116h-9.936V457h.95s.526.017.526-.768V450.6c0-.788-.526-.771-.526-.771h-.95v-1.479h9.936l.448,4.408h-1.474s.127-2.806-2.374-2.806h-2.192v2.334h.674a1.081,1.081,0,0,0,.945-1.207h1.536v4.482" transform="translate(-74.225 -448.02)"/><path d="M116.69,448.958l.247-.531h1.332v4.134h-1.394a3.02,3.02,0,0,0-3.089-2.766s-2.539-.061-2.539,3.583c0,0-.247,3.87,2.519,3.87,0,0,2.333.287,3.11-2.581h1.5a4.352,4.352,0,0,1-4.714,4.323s-5.037.04-5.444-5.119c0,0-.123-5.509,5.139-5.774a6.874,6.874,0,0,1,3.337.862" transform="translate(-83.64 -448.096)"/><path d="M110.661,456.954a.745.745,0,0,1-.791-.447l-3.168-8.175h-1.8l-3.684,8.175a.748.748,0,0,1-.793.447h-.512V458.4l4.477.016v-1.462h-.762c-.837,0-.463-.654-.463-.654l.376-.8h3.321l.313.8s.382.654-.456.654h-.763v1.462l5.21-.016v-1.446Zm-6.317-3.155,1.007-2.15.847,2.15h-1.855" transform="translate(-86.126 -448.025)"/></g></g></g></svg>