<svg style="background-color: red;" xmlns="http://www.w3.org/2000/svg" width="118" height="34.319" viewBox="0 0 118 34.319">
  <path fill-rule="evenodd" clip-rule="evenodd" fill="#FFF" d="M112.392 15.293c-1.431-.154-2.92-.826-4.655-.928-1.744-.11-3.72.238-6.272 1.166-1.387.51-3.531 1.361-4.876 2.204l1.659-3.761-6.654-.094c-1.693 1.583-4.927 2.579-7.557 1.795-1.294-.357-2.392-1.004-3.013-2.068-1.149.375-2.562.656-4.094.75 1.021 3.489.63 8.179-1.991 10.646-1.056.996-2.706 1.847-4.28 1.371-2.596-.767-2.128-3.541-1.148-5.328 1.14-2 3.479-2.987 5.658-2.842a15.5 15.5 0 0 0-.468-3.83c-.894-.06-1.796.025-2.74.229-4.06.868-6.936 3.753-8.774 7.088-.868 1.609-1.029 3.149-1.055 5.047-1.157 1.285-4.391 2.034-5.974 1.2-.945-.332-1.268-1.575-.545-2.996l6.229-9.625 3.515.034 2.451-3.753-3.515-.042 2.723-4.17-7.515-.102-2.731 4.178-3.923-.051-2.391 3.736 3.872.051c-2.077 3.251-4.195 7.012-6.749 10.059-1.268 1.54-2.894 2.638-4.791 3.276-1.132.374-2.843.519-4.11-.511 3.548-1.345 7.489-3.872 8.604-8.195.468-1.761.553-3.693-.902-5.259-1.634-1.728-4.314-1.907-6.493-1.422-3.847.86-6.664 3.319-8.664 6.332-1.489 2.247-2.119 6.076-1.855 8.187-2.774.792-6.247 1.285-8.782-.28-.851-.528-1.558-1.226-2.298-1.839l6.885-7.506 4.884.051 2.545-4.034-3.745-.042c2.528-2.637 5.063-6.126 8.195-8.493.723-.544 1.506-.953 2.212-1.319-.085-1.132-1.668-2.102-2.204-3.191-2.392 1.259-5.66 1.268-8.766.902-3.2-.375-6.247-1.65-9.429-1.872-4.483-.323-9.002 1.192-12.032 3.975C4.051 6.562 1.949 8.885 0 12.145l2.638 2.196c.732-1.03 1.608-2.06 2.553-3.149 3.276-3.854 9.225-3.25 13.829-2.425 2.392.426 4.664.459 6.961.196l-4.536 4.91-4.314-.06c-.749-.017-1.37.469-1.906 1.039-.86 1.081-1.489 1.982-2.187 3.012l4.723.077-4.417 4.816c-3.362-1.319-8.017-1.311-10.314 1.141-1.932 2.068-2.374 4.476-1.285 7.225.655 1.667 2.076 2.867 4.042 2.994 3.106.188 5.174-1.522 7.302-3.378 1.447 1.353 2.74 2.153 4.791 2.834 4.408 1.438 9.072-.435 13.038-2.272 1.728 1.982 4.578 3.166 7.54 3.004 3.175-.145 6.187-1.37 8.357-3.098 1.2 1.72 2.298 2.732 4.646 2.97 4.145.418 8.561-1.276 11.471-3.412 1.489 2.136 3.957 3.421 6.774 3.396 4.467-.315 7.982-3.123 9.854-6.477 1.405-2.536 2.145-5.701 2.026-8.569 1.242.604 2.493.936 3.583.945.748.008 2.323-.222 3.046-.528l-8.434 14.552 6.979.018 4.434-7.642c.8-1.361 1.881-2.825 3.115-3.839 4.195-3.429 10.187-.195 15.071-1.268 3.592-.791 6.314-2.28 8.621-4.689a35 35 0 0 0-1.712-2.263c-1.344.765-2.613 1.019-3.897.892M36.065 25.13c-.281-1.924.23-4.773 1.387-6.204.876-1.072 2.34-2.094 3.957-1.83 1.268.213 1.762 1.413 1.208 2.638-1.259 2.809-3.939 4.409-6.552 5.396"/>
</svg>
